<?xml version="1.0" encoding="UTF-8" standalone="no"?>
<!DOCTYPE svg PUBLIC "-//W3C//DTD SVG 1.1//EN"
 "http://www.w3.org/Graphics/SVG/1.1/DTD/svg11.dtd">
<!-- Generated by graphviz version 2.38.0 (20140413.2041)
 -->
<!-- Title: models_diagram Pages: 1 -->
<svg width="480pt" height="123pt"
 viewBox="0.00 0.00 480.31 123.00" xmlns="http://www.w3.org/2000/svg" xmlns:xlink="http://www.w3.org/1999/xlink">
<g id="graph0" class="graph" transform="scale(1 1) rotate(0) translate(4 119)">
<title>models_diagram</title>
<polygon fill="none" stroke="none" points="-4,4 -4,-119 476.312,-119 476.312,4 -4,4"/>
<!-- _diagram_info -->
<g id="node1" class="node"><title>_diagram_info</title>
<text text-anchor="start" x="8" y="-79.6" font-family="Times,serif" font-size="13.00">Models diagram</text>
<text text-anchor="start" x="8" y="-66.6" font-family="Times,serif" font-size="13.00">Date: Jul 18 2016 &#45; 21:56</text>
<text text-anchor="start" x="8" y="-53.6" font-family="Times,serif" font-size="13.00">Migration version: 20160719011851</text>
<text text-anchor="start" x="8" y="-40.6" font-family="Times,serif" font-size="13.00">Generated by RailRoady 1.5.1</text>
<text text-anchor="start" x="8" y="-27.6" font-family="Times,serif" font-size="13.00">http://railroady.prestonlee.com</text>
</g>
<!-- Inventory -->
<g id="node2" class="node"><title>Inventory</title>
<path fill="none" stroke="black" d="M236.587,-0.5C236.587,-0.5 460.312,-0.5 460.312,-0.5 466.312,-0.5 472.312,-6.5 472.312,-12.5 472.312,-12.5 472.312,-102.5 472.312,-102.5 472.312,-108.5 466.312,-114.5 460.312,-114.5 460.312,-114.5 236.587,-114.5 236.587,-114.5 230.587,-114.5 224.587,-108.5 224.587,-102.5 224.587,-102.5 224.587,-12.5 224.587,-12.5 224.587,-6.5 230.587,-0.5 236.587,-0.5"/>
<text text-anchor="middle" x="348.45" y="-99.3" font-family="Times,serif" font-size="14.00">Inventory</text>
<polyline fill="none" stroke="black" points="224.587,-92.5 472.312,-92.5 "/>
<text text-anchor="start" x="232.587" y="-77.3" font-family="Times,serif" font-size="14.00">id :integer</text>
<text text-anchor="start" x="232.587" y="-63.3" font-family="Times,serif" font-size="14.00">rueda :character varying</text>
<text text-anchor="start" x="232.587" y="-49.3" font-family="Times,serif" font-size="14.00">size :integer</text>
<text text-anchor="start" x="232.587" y="-35.3" font-family="Times,serif" font-size="14.00">description :text</text>
<text text-anchor="start" x="232.587" y="-21.3" font-family="Times,serif" font-size="14.00">created_at :timestamp without time zone</text>
<text text-anchor="start" x="232.587" y="-7.3" font-family="Times,serif" font-size="14.00">updated_at :timestamp without time zone</text>
</g>
</g>
</svg>
