<?xml version="1.0" encoding="UTF-8" standalone="no"?>
<!DOCTYPE svg PUBLIC "-//W3C//DTD SVG 1.1//EN"
 "http://www.w3.org/Graphics/SVG/1.1/DTD/svg11.dtd">
<!-- Generated by graphviz version 2.38.0 (20140413.2041)
 -->
<!-- Title: models_diagram Pages: 1 -->
<svg width="398pt" height="225pt"
 viewBox="0.00 0.00 398.15 225.00" xmlns="http://www.w3.org/2000/svg" xmlns:xlink="http://www.w3.org/1999/xlink">
<g id="graph0" class="graph" transform="scale(1 1) rotate(0) translate(4 221)">
<title>models_diagram</title>
<polygon fill="none" stroke="none" points="-4,4 -4,-221 394.149,-221 394.149,4 -4,4"/>
<!-- _diagram_info -->
<g id="node1" class="node"><title>_diagram_info</title>
<text text-anchor="start" x="8" y="-202.6" font-family="Times,serif" font-size="13.00">Models diagram</text>
<text text-anchor="start" x="8" y="-189.6" font-family="Times,serif" font-size="13.00">Date: Jul 18 2016 &#45; 21:56</text>
<text text-anchor="start" x="8" y="-176.6" font-family="Times,serif" font-size="13.00">Migration version: 20160719011851</text>
<text text-anchor="start" x="8" y="-163.6" font-family="Times,serif" font-size="13.00">Generated by RailRoady 1.5.1</text>
<text text-anchor="start" x="8" y="-150.6" font-family="Times,serif" font-size="13.00">http://railroady.prestonlee.com</text>
</g>
<!-- Inventory -->
<g id="node2" class="node"><title>Inventory</title>
<ellipse fill="none" stroke="black" cx="238.45" cy="-18" rx="44.475" ry="18"/>
<text text-anchor="middle" x="238.45" y="-13.8" font-family="Times,serif" font-size="14.00">Inventory</text>
</g>
<!-- Operation -->
<g id="node3" class="node"><title>Operation</title>
<ellipse fill="none" stroke="black" cx="270.45" cy="-180.5" rx="45.4355" ry="18"/>
<text text-anchor="middle" x="270.45" y="-176.3" font-family="Times,serif" font-size="14.00">Operation</text>
</g>
<!-- Operation&#45;&gt;Inventory -->
<g id="edge3" class="edge"><title>Operation&#45;&gt;Inventory</title>
<path fill="none" stroke="#04b2de" d="M251.393,-156.659C241.559,-143.363 230.574,-125.761 225.45,-108 219.552,-87.5566 223.615,-63.662 228.707,-45.7816"/>
<ellipse fill="none" stroke="#04b2de" cx="253.963" cy="-160.02" rx="4.00002" ry="4.00002"/>
<polygon fill="#04b2de" stroke="#04b2de" points="228.774,-45.5656 236.051,-37.3622 230.265,-40.793 231.756,-36.0205 231.756,-36.0205 231.756,-36.0205 230.265,-40.793 227.461,-34.6787 228.774,-45.5656 228.774,-45.5656"/>
</g>
<!-- Worker -->
<g id="node4" class="node"><title>Worker</title>
<ellipse fill="none" stroke="black" cx="270.45" cy="-90" rx="36.3169" ry="18"/>
<text text-anchor="middle" x="270.45" y="-85.8" font-family="Times,serif" font-size="14.00">Worker</text>
</g>
<!-- Operation&#45;&gt;Worker -->
<g id="edge1" class="edge"><title>Operation&#45;&gt;Worker</title>
<path fill="none" stroke="#6e735c" d="M270.45,-154.189C270.45,-142.971 270.45,-129.752 270.45,-118.311"/>
<ellipse fill="none" stroke="#6e735c" cx="270.45" cy="-158.436" rx="4" ry="4"/>
<polygon fill="#6e735c" stroke="#6e735c" points="270.45,-118.011 274.95,-108.011 270.45,-113.011 270.45,-108.011 270.45,-108.011 270.45,-108.011 270.45,-113.011 265.95,-108.011 270.45,-118.011 270.45,-118.011"/>
</g>
<!-- Rueda -->
<g id="node5" class="node"><title>Rueda</title>
<ellipse fill="none" stroke="black" cx="357.45" cy="-90" rx="32.8994" ry="18"/>
<text text-anchor="middle" x="357.45" y="-85.8" font-family="Times,serif" font-size="14.00">Rueda</text>
</g>
<!-- Operation&#45;&gt;Rueda -->
<g id="edge2" class="edge"><title>Operation&#45;&gt;Rueda</title>
<path fill="none" stroke="#00adf2" d="M292.349,-157.223C305.435,-143.911 322.017,-127.044 335.17,-113.664"/>
<ellipse fill="none" stroke="#00adf2" cx="289.211" cy="-160.415" rx="4.00002" ry="4.00002"/>
<polygon fill="#00adf2" stroke="#00adf2" points="335.456,-113.373 345.675,-109.397 338.961,-109.808 342.466,-106.242 342.466,-106.242 342.466,-106.242 338.961,-109.808 339.257,-103.087 335.456,-113.373 335.456,-113.373"/>
</g>
<!-- Worker&#45;&gt;Inventory -->
<g id="edge4" class="edge"><title>Worker&#45;&gt;Inventory</title>
<path fill="none" stroke="#57c4b9" d="M259.348,-64.7144C256.484,-58.4507 253.389,-51.6804 250.481,-45.3185"/>
<ellipse fill="none" stroke="#57c4b9" cx="261.04" cy="-68.4171" rx="4.00002" ry="4.00002"/>
<polygon fill="#57c4b9" stroke="#57c4b9" points="250.282,-44.8838 250.217,-33.9181 248.204,-40.3364 246.125,-35.789 246.125,-35.789 246.125,-35.789 248.204,-40.3364 242.032,-37.6599 250.282,-44.8838 250.282,-44.8838"/>
</g>
</g>
</svg>
